<svg width="32" height="32" viewBox="0 0 32 32" fill="none" xmlns="http://www.w3.org/2000/svg">
<path d="M32 16C31.625 15.9785 31.2599 15.957 30.9046 15.9356C30.5492 15.9142 30.2035 15.8928 29.8671 15.8713C29.5306 15.8498 29.2036 15.8283 28.8855 15.8066C28.5674 15.7848 28.2583 15.7629 27.9579 15.7408C27.6574 15.7186 27.3656 15.6962 27.0823 15.6733C26.7989 15.6505 26.5238 15.6273 26.2567 15.6036C25.9897 15.5799 25.7307 15.5557 25.4794 15.531C25.228 15.5062 24.9845 15.4809 24.7483 15.4549C24.512 15.4289 24.2832 15.4021 24.0614 15.3747C23.8396 15.3472 23.6247 15.3189 23.4167 15.2898C23.2087 15.2606 23.0074 15.2306 22.8125 15.1995C22.6176 15.1685 22.429 15.1365 22.2466 15.1034C22.0642 15.0703 21.8878 15.0361 21.7172 15.0007C21.5466 14.9653 21.3818 14.9287 21.2224 14.8909C21.0629 14.853 20.909 14.8139 20.7601 14.7733C20.6112 14.7328 20.4674 14.6908 20.3284 14.6474C20.1894 14.604 20.0552 14.559 19.9254 14.5125C19.7957 14.466 19.6704 14.4179 19.5493 14.368C19.428 14.3182 19.3111 14.2667 19.1978 14.2134C19.0846 14.1601 18.9752 14.105 18.8693 14.048C18.7634 13.991 18.6609 13.9321 18.5615 13.8712C18.4623 13.8102 18.3661 13.7473 18.2729 13.6823C18.1795 13.6173 18.0891 13.5502 18.0012 13.4809C17.9132 13.4116 17.8278 13.34 17.7445 13.2662C17.6613 13.1924 17.5802 13.1163 17.5009 13.0377C17.4218 12.9592 17.3443 12.8783 17.2686 12.7948C17.1928 12.7114 17.1186 12.6254 17.0455 12.5368C16.9724 12.4482 16.9006 12.3571 16.8296 12.2632C16.7587 12.1693 16.6886 12.0727 16.619 11.9733C16.5495 11.8739 16.4806 11.7717 16.4119 11.6666C16.3433 11.5614 16.2748 11.4534 16.2062 11.3423C16.1377 11.2313 16.0691 11.1172 16 11C15.931 11.1172 15.8623 11.2313 15.7938 11.3423C15.7252 11.4534 15.5881 11.6666 15.5881 11.6666C15.5881 11.6666 15.4504 11.8739 15.381 11.9733C15.3114 12.0727 15.2413 12.1693 15.1704 12.2632C15.0994 12.3571 15.0276 12.4482 14.9545 12.5368C14.8814 12.6254 14.8072 12.7113 14.7314 12.7948C14.6556 12.8782 14.5782 12.9592 14.4991 13.0377C14.4199 13.1163 14.3388 13.1924 14.2555 13.2662C14.1722 13.34 14.0868 13.4116 13.9988 13.4809C13.9109 13.5502 13.8204 13.6173 13.7271 13.6823C13.6338 13.7473 13.5377 13.8102 13.4385 13.8712C13.3392 13.9321 13.2367 13.991 13.1307 14.048C13.0248 14.105 12.9154 14.1601 12.8022 14.2134C12.6889 14.2667 12.5719 14.3182 12.4507 14.368C12.3296 14.4179 12.2043 14.466 12.0746 14.5125C11.9448 14.559 11.8106 14.604 11.6716 14.6474C11.5326 14.6908 11.3888 14.7328 11.2399 14.7733C11.091 14.8139 10.9371 14.853 10.7776 14.8909C10.6182 14.9287 10.4534 14.9653 10.2828 15.0007C10.1122 15.0361 9.93583 15.0703 9.75348 15.1034C9.57105 15.1365 9.38252 15.1685 9.18761 15.1995C8.99271 15.2306 8.79143 15.2606 8.58335 15.2898C8.37535 15.3189 8.16053 15.3472 7.93873 15.3747C7.71693 15.4021 7.48806 15.4289 7.25183 15.4549C7.01561 15.4809 6.77196 15.5062 6.52069 15.531C6.26934 15.5557 6.01038 15.5799 5.74329 15.6036C5.47628 15.6273 5.20122 15.6505 4.91775 15.6733C4.63437 15.6962 4.34259 15.7186 4.04214 15.7408C3.74169 15.7629 3.43256 15.7848 3.1145 15.8066C2.79635 15.8283 2.46927 15.8498 2.1329 15.8713C1.79644 15.8928 1.45069 15.9142 1.09538 15.9356C0.739988 15.957 0.374947 15.9784 0 16C0.375035 16.0216 0.740077 16.043 1.09538 16.0645C1.45078 16.0859 1.79653 16.1073 2.1329 16.1288C2.46927 16.1502 2.79644 16.1718 3.1145 16.1935C3.43256 16.2152 3.74169 16.2371 4.04214 16.2593C4.34259 16.2815 4.63428 16.3039 4.91775 16.3267C5.20113 16.3496 5.47619 16.3728 5.74329 16.3965C6.0103 16.4202 6.26934 16.4443 6.52069 16.4691C6.77205 16.4938 7.01561 16.5192 7.25183 16.5452C7.48806 16.5712 7.71693 16.5979 7.93873 16.6254C8.16053 16.6529 8.37535 16.6812 8.58335 16.7103C8.79134 16.7395 8.99271 16.7695 9.18761 16.8005C9.38252 16.8315 9.57105 16.8635 9.75348 16.8967C9.93592 16.9298 10.1122 16.964 10.2828 16.9994C10.4534 17.0347 10.6182 17.0713 10.7776 17.1092C10.9371 17.147 11.091 17.1862 11.2399 17.2267C11.3888 17.2673 11.5326 17.3092 11.6716 17.3527C11.8106 17.3961 11.9448 17.441 12.0746 17.4876C12.2044 17.5341 12.3296 17.5822 12.4507 17.632C12.572 17.6818 12.6889 17.7333 12.8022 17.7866C12.9154 17.84 13.0248 17.8951 13.1307 17.9521C13.2366 18.0091 13.3391 18.068 13.4385 18.1289C13.5377 18.1898 13.6339 18.2527 13.7271 18.3177C13.8205 18.3827 13.9109 18.4499 13.9988 18.5192C14.0868 18.5885 14.1722 18.66 14.2555 18.7338C14.3388 18.8076 14.4199 18.8838 14.4991 18.9623C14.5782 19.0408 14.6557 19.1218 14.7314 19.2052C14.8072 19.2887 14.8814 19.3746 14.9545 19.4632C15.0276 19.5518 15.0994 19.6429 15.1704 19.7368C15.2413 19.8307 15.3114 19.9273 15.381 20.0267C15.4505 20.1261 15.5194 20.2284 15.5881 20.3335C15.6568 20.4386 15.7252 20.5466 15.7938 20.6577C15.8623 20.7688 15.931 20.8828 16 21C16.069 20.8828 16.1377 20.7687 16.2062 20.6577C16.2748 20.5466 16.3433 20.4386 16.4119 20.3335C16.4806 20.2284 16.5496 20.1261 16.619 20.0267C16.6886 19.9273 16.7586 19.8307 16.8296 19.7368C16.9006 19.6429 16.9724 19.5518 17.0455 19.4632C17.1186 19.3746 17.1928 19.2887 17.2686 19.2052C17.3444 19.1218 17.4218 19.0408 17.5009 18.9623C17.5801 18.8838 17.6613 18.8076 17.7445 18.7338C17.8278 18.66 17.9132 18.5885 18.0012 18.5192C18.0891 18.4499 18.1796 18.3827 18.2729 18.3177C18.3662 18.2527 18.4623 18.1898 18.5615 18.1289C18.6608 18.068 18.7633 18.0091 18.8693 17.9521C18.9752 17.8951 19.0846 17.84 19.1978 17.7866C19.3111 17.7333 19.4281 17.6818 19.5493 17.632C19.6705 17.5822 19.7957 17.5341 19.9254 17.4876C20.0552 17.441 20.1894 17.3961 20.3284 17.3527C20.4674 17.3092 20.6112 17.2673 20.7601 17.2267C20.909 17.1862 21.0629 17.147 21.2224 17.1092C21.3818 17.0713 21.5466 17.0347 21.7172 16.9994C21.8878 16.964 22.0642 16.9298 22.2466 16.8967C22.429 16.8636 22.6176 16.8316 22.8125 16.8005C23.0074 16.7695 23.2087 16.7394 23.4167 16.7103C23.6248 16.6811 23.8396 16.6529 24.0614 16.6254C24.2832 16.5979 24.512 16.5712 24.7483 16.5452C24.9845 16.5192 25.2281 16.4938 25.4794 16.4691C25.7307 16.4443 25.9897 16.4201 26.2567 16.3965C26.5237 16.3728 26.7988 16.3496 27.0823 16.3267C27.3656 16.3039 27.6574 16.2815 27.9579 16.2593C28.2583 16.2371 28.5674 16.2152 28.8855 16.1935C29.2036 16.1717 29.5307 16.1502 29.8671 16.1288C30.2035 16.1073 30.5492 16.0859 30.9046 16.0645C31.26 16.043 31.6251 16.0216 32 16Z" fill="white"/>
<path d="M21 16.0001C20.8828 15.9311 20.7687 15.8624 20.6577 15.7939C20.5466 15.7253 20.4386 15.6569 20.3335 15.5882C20.2283 15.5195 20.1261 15.4505 20.0267 15.381C19.9273 15.3115 19.8307 15.2414 19.7368 15.1705C19.6429 15.0995 19.5518 15.0277 19.4632 14.9546C19.3746 14.8815 19.2887 14.8073 19.2052 14.7315C19.1218 14.6557 19.0408 14.5783 18.9623 14.4992C18.8838 14.42 18.8076 14.3388 18.7338 14.2556C18.66 14.1723 18.5885 14.0869 18.5192 13.9989C18.4499 13.911 18.3827 13.8205 18.3177 13.7272C18.2527 13.6339 18.1898 13.5378 18.1289 13.4385C18.068 13.3393 18.0091 13.2368 17.9521 13.1308C17.8951 13.0249 17.84 12.9155 17.7866 12.8022C17.7333 12.689 17.6818 12.572 17.632 12.4508C17.5822 12.3296 17.5341 12.2044 17.4875 12.0746C17.441 11.9449 17.3961 11.8106 17.3526 11.6717C17.3092 11.5327 17.2673 11.3889 17.2267 11.24C17.1861 11.0911 17.147 10.9372 17.1091 10.7777C17.0713 10.6183 17.0347 10.4535 16.9993 10.2829C16.9639 10.1123 16.9297 9.93591 16.8966 9.75357C16.8635 9.57114 16.8315 9.38261 16.8005 9.1877C16.7695 8.9928 16.7394 8.79143 16.7103 8.58343C16.6811 8.37543 16.6528 8.16062 16.6254 7.93882C16.5979 7.71702 16.5712 7.48814 16.5452 7.25192C16.5191 7.0157 16.4938 6.77205 16.469 6.52078C16.4443 6.26943 16.4201 6.01047 16.3964 5.74337C16.3727 5.47636 16.3496 5.2013 16.3267 4.91784C16.3039 4.63437 16.2814 4.34268 16.2593 4.04222C16.2371 3.74177 16.2152 3.43265 16.1935 3.11459C16.1717 2.79644 16.1502 2.46936 16.1287 2.13298C16.1073 1.79652 16.0859 1.45077 16.0644 1.09547C16.043 0.740073 16.0216 0.375035 16 0C15.9784 0.375035 15.957 0.740073 15.9356 1.09547C15.9141 1.45086 15.8713 2.13298 15.8713 2.13298C15.8713 2.13298 15.8283 2.79653 15.8066 3.11459C15.7848 3.43265 15.7629 3.74177 15.7407 4.04222C15.7186 4.34268 15.6961 4.63437 15.6733 4.91784C15.6505 5.2013 15.6273 5.47628 15.6036 5.74337C15.5799 6.01038 15.5557 6.26943 15.531 6.52078C15.5062 6.77213 15.4809 7.0157 15.4548 7.25192C15.4288 7.48814 15.4021 7.71702 15.3746 7.93882C15.3472 8.16062 15.3189 8.37543 15.2897 8.58343C15.2606 8.79143 15.2305 8.9928 15.1995 9.1877C15.1685 9.38261 15.1365 9.57114 15.1034 9.75357C15.0703 9.936 15.0361 10.1123 15.0007 10.2829C14.9653 10.4535 14.9287 10.6183 14.8909 10.7777C14.853 10.9372 14.8138 11.0911 14.7733 11.24C14.7327 11.3889 14.6908 11.5327 14.6474 11.6717C14.6039 11.8106 14.559 11.9449 14.5125 12.0746C14.4659 12.2044 14.4178 12.3297 14.368 12.4508C14.3182 12.572 14.2667 12.689 14.2134 12.8022C14.1601 12.9155 14.1049 13.0249 14.048 13.1308C13.991 13.2367 13.932 13.3392 13.8711 13.4385C13.8102 13.5378 13.7473 13.634 13.6823 13.7272C13.6173 13.8206 13.5502 13.911 13.4809 13.9989C13.4115 14.0869 13.34 14.1723 13.2662 14.2556C13.1924 14.3388 13.1162 14.4199 13.0377 14.4992C12.9592 14.5783 12.8782 14.6557 12.7948 14.7315C12.7113 14.8073 12.6254 14.8815 12.5368 14.9546C12.4482 15.0277 12.3571 15.0995 12.2632 15.1705C12.1693 15.2414 12.0727 15.3115 11.9733 15.381C11.8739 15.4506 11.7716 15.5195 11.6665 15.5882C11.5614 15.6568 11.4533 15.7253 11.3423 15.7939C11.2312 15.8624 11.1172 15.931 11 16.0001C11.1172 16.0691 11.2313 16.1378 11.3423 16.2063C11.4534 16.2749 11.5614 16.3434 11.6665 16.412C11.7716 16.4808 11.8739 16.5497 11.9733 16.6191C12.0727 16.6887 12.1693 16.7587 12.2632 16.8297C12.3571 16.9007 12.4482 16.9725 12.5368 17.0456C12.6254 17.1187 12.7113 17.1929 12.7948 17.2687C12.8782 17.3445 12.9592 17.4218 13.0377 17.501C13.1163 17.5802 13.1924 17.6613 13.2662 17.7446C13.34 17.8278 13.4115 17.9133 13.4809 18.0013C13.5502 18.0892 13.6173 18.1797 13.6823 18.273C13.7473 18.3663 13.8102 18.4624 13.8711 18.5616C13.932 18.6609 13.991 18.7634 14.048 18.8693C14.105 18.9752 14.1601 19.0847 14.2134 19.1979C14.2667 19.3112 14.3182 19.4282 14.368 19.5493C14.4178 19.6706 14.4659 19.7958 14.5125 19.9255C14.559 20.0553 14.6039 20.1895 14.6474 20.3285C14.6908 20.4675 14.7327 20.6113 14.7733 20.7602C14.8139 20.9091 14.853 21.063 14.8909 21.2225C14.9287 21.3819 14.9653 21.5467 15.0007 21.7173C15.0361 21.8879 15.0702 22.0643 15.1034 22.2466C15.1365 22.429 15.1685 22.6176 15.1995 22.8125C15.2305 23.0074 15.2606 23.2087 15.2897 23.4167C15.3189 23.6247 15.3472 23.8396 15.3746 24.0614C15.4021 24.2832 15.4288 24.512 15.4548 24.7483C15.4809 24.9845 15.5062 25.2281 15.531 25.4794C15.5557 25.7307 15.5799 25.9897 15.6036 26.2567C15.6273 26.5237 15.6505 26.7988 15.6733 27.0823C15.6961 27.3657 15.7186 27.6574 15.7407 27.9579C15.7629 28.2583 15.7848 28.5674 15.8066 28.8855C15.8283 29.2036 15.8498 29.5307 15.8713 29.8671C15.8928 30.2035 15.9141 30.5492 15.9356 30.9046C15.957 31.26 15.9784 31.6251 16 32C16.0216 31.625 16.043 31.2599 16.0644 30.9046C16.0859 30.5492 16.1073 30.2035 16.1287 29.8671C16.1502 29.5307 16.1717 29.2036 16.1935 28.8855C16.2152 28.5674 16.2371 28.2583 16.2593 27.9579C16.2814 27.6574 16.3039 27.3657 16.3267 27.0823C16.3496 26.7988 16.3727 26.5238 16.3964 26.2567C16.4201 25.9897 16.4443 25.7307 16.469 25.4794C16.4938 25.228 16.5191 24.9845 16.5452 24.7483C16.5712 24.512 16.5979 24.2832 16.6254 24.0614C16.6528 23.8396 16.6811 23.6247 16.7103 23.4167C16.7394 23.2087 16.7695 23.0074 16.8005 22.8125C16.8315 22.6176 16.8635 22.429 16.8966 22.2466C16.9297 22.0642 16.9639 21.8879 16.9993 21.7173C17.0347 21.5467 17.0713 21.3819 17.1091 21.2225C17.147 21.063 17.1862 20.9091 17.2267 20.7602C17.2673 20.6113 17.3092 20.4675 17.3526 20.3285C17.3961 20.1895 17.441 20.0553 17.4875 19.9255C17.5341 19.7957 17.5822 19.6705 17.632 19.5493C17.6818 19.4281 17.7333 19.3112 17.7866 19.1979C17.8399 19.0847 17.8951 18.9752 17.9521 18.8693C18.0091 18.7634 18.068 18.661 18.1289 18.5616C18.1898 18.4624 18.2527 18.3662 18.3177 18.273C18.3828 18.1796 18.4499 18.0892 18.5192 18.0013C18.5885 17.9133 18.66 17.8278 18.7338 17.7446C18.8076 17.6613 18.8838 17.5803 18.9623 17.501C19.0409 17.4218 19.1218 17.3444 19.2052 17.2687C19.2887 17.1929 19.3746 17.1187 19.4632 17.0456C19.5518 16.9725 19.6429 16.9007 19.7368 16.8297C19.8307 16.7587 19.9273 16.6887 20.0267 16.6191C20.1261 16.5496 20.2284 16.4807 20.3335 16.412C20.4386 16.3434 20.5466 16.2749 20.6577 16.2063C20.7688 16.1378 20.8828 16.0691 21 16.0001Z" fill="white"/>
</svg>
