<svg width="32" height="32" viewBox="0 0 32 32" fill="none" xmlns="http://www.w3.org/2000/svg">
<path d="M16.0001 0C15.9311 0.375035 15.8624 0.740074 15.7939 1.09538C15.7253 1.45077 15.6569 1.79652 15.5882 2.1329C15.5195 2.46936 15.4505 2.79644 15.381 3.1145C15.3115 3.43256 15.2414 3.74168 15.1705 4.04214C15.0995 4.34259 15.0277 4.63437 14.9546 4.91775C14.8815 5.20112 14.8073 5.47619 14.7315 5.74329C14.6557 6.0103 14.5783 6.26934 14.4992 6.5206C14.42 6.77196 14.3388 7.01552 14.2556 7.25174C14.1723 7.48796 14.0869 7.71684 13.9989 7.93864C13.911 8.16045 13.8205 8.37525 13.7272 8.58325C13.6339 8.79125 13.5378 8.99262 13.4385 9.18752C13.3393 9.38243 13.2368 9.57096 13.1308 9.75339C13.0249 9.93582 12.9155 10.1122 12.8022 10.2828C12.689 10.4534 12.572 10.6182 12.4508 10.7776C12.3296 10.9371 12.2043 11.091 12.0746 11.2399C11.9449 11.3888 11.8106 11.5326 11.6717 11.6716C11.5327 11.8106 11.3889 11.9448 11.24 12.0746C11.0911 12.2043 10.9372 12.3296 10.7777 12.4507C10.6183 12.572 10.4535 12.6889 10.2829 12.8022C10.1123 12.9154 9.93591 13.0248 9.75357 13.1307C9.57114 13.2366 9.38261 13.3391 9.1877 13.4385C8.9928 13.5377 8.79143 13.6339 8.58343 13.7271C8.37543 13.8205 8.16062 13.9109 7.93882 13.9988C7.71702 14.0868 7.48814 14.1722 7.25192 14.2555C7.0157 14.3387 6.77204 14.4198 6.52078 14.4991C6.26943 14.5782 6.01047 14.6557 5.74337 14.7314C5.47636 14.8072 5.2013 14.8814 4.91784 14.9545C4.63437 15.0276 4.34268 15.0994 4.04222 15.1704C3.74177 15.2413 3.43265 15.3114 3.11459 15.381C2.79644 15.4505 2.46936 15.5194 2.13298 15.5881C1.79652 15.6567 1.45077 15.7252 1.09547 15.7938C0.740073 15.8623 0.375035 15.9309 0 16C0.375035 16.069 0.740073 16.1377 1.09547 16.2062C1.45086 16.2748 1.79661 16.3433 2.13298 16.4119C2.46936 16.4806 2.79653 16.5496 3.11459 16.619C3.43265 16.6886 3.74177 16.7587 4.04222 16.8296C4.34268 16.9006 4.63437 16.9724 4.91784 17.0455C5.2013 17.1186 5.47628 17.1928 5.74337 17.2686C6.01038 17.3444 6.26943 17.4218 6.52078 17.5009C6.77213 17.5801 7.0157 17.6612 7.25192 17.7445C7.48814 17.8278 7.71702 17.9132 7.93882 18.0012C8.16062 18.0891 8.37543 18.1796 8.58343 18.2729C8.79143 18.3662 8.9928 18.4623 9.1877 18.5615C9.38261 18.6608 9.57114 18.7633 9.75357 18.8693C9.936 18.9752 10.1123 19.0846 10.2829 19.1978C10.4535 19.3111 10.6183 19.4281 10.7777 19.5493C10.9372 19.6704 11.0911 19.7957 11.24 19.9254C11.3889 20.0552 11.5327 20.1894 11.6717 20.3284C11.8106 20.4674 11.9449 20.6112 12.0746 20.7601C12.2044 20.909 12.3297 21.0629 12.4508 21.2224C12.572 21.3818 12.689 21.5466 12.8022 21.7172C12.9155 21.8878 13.0249 22.0642 13.1308 22.2465C13.2367 22.4289 13.3392 22.6175 13.4385 22.8124C13.5378 23.0073 13.634 23.2086 13.7272 23.4167C13.8206 23.6247 13.911 23.8395 13.9989 24.0613C14.0869 24.2831 14.1723 24.5119 14.2556 24.7482C14.3388 24.9844 14.4199 25.228 14.4992 25.4793C14.5783 25.7307 14.6557 25.9896 14.7315 26.2567C14.8073 26.5237 14.8815 26.7988 14.9546 27.0822C15.0277 27.3656 15.0995 27.6574 15.1705 27.9579C15.2414 28.2583 15.3115 28.5674 15.381 28.8855C15.4506 29.2036 15.5195 29.5307 15.5882 29.8671C15.6568 30.2036 15.7253 30.5493 15.7939 30.9046C15.8624 31.26 15.931 31.6251 16.0001 32C16.0691 31.625 16.1378 31.2599 16.2063 30.9046C16.2749 30.5492 16.3434 30.2035 16.412 29.8671C16.4808 29.5307 16.5497 29.2036 16.6191 28.8855C16.6887 28.5674 16.7587 28.2583 16.8297 27.9579C16.9007 27.6574 16.9725 27.3657 17.0456 27.0822C17.1186 26.7989 17.1929 26.5238 17.2687 26.2567C17.3445 25.9897 17.4218 25.7307 17.501 25.4793C17.5802 25.228 17.6613 24.9844 17.7446 24.7482C17.8278 24.5119 17.9133 24.2831 18.0013 24.0613C18.0892 23.8395 18.1797 23.6247 18.273 23.4167C18.3663 23.2087 18.4624 23.0073 18.5616 22.8124C18.6609 22.6175 18.7634 22.4289 18.8693 22.2465C18.9752 22.0641 19.0847 21.8878 19.1979 21.7172C19.3112 21.5466 19.4282 21.3818 19.5493 21.2224C19.6706 21.0629 19.7958 20.909 19.9255 20.7601C20.0553 20.6112 20.1895 20.4674 20.3285 20.3284C20.4675 20.1894 20.6113 20.0552 20.7602 19.9254C20.9091 19.7956 21.063 19.6704 21.2224 19.5493C21.3819 19.428 21.5467 19.3111 21.7173 19.1978C21.8879 19.0846 22.0643 18.9752 22.2466 18.8693C22.429 18.7634 22.6176 18.6609 22.8125 18.5615C23.0074 18.4623 23.2087 18.3661 23.4167 18.2729C23.6247 18.1795 23.8396 18.0891 24.0614 18.0012C24.2832 17.9132 24.512 17.8278 24.7483 17.7445C24.9845 17.6612 25.2281 17.5801 25.4794 17.5009C25.7307 17.4218 25.9897 17.3443 26.2567 17.2686C26.5237 17.1928 26.7988 17.1186 27.0823 17.0455C27.3657 16.9724 27.6574 16.9006 27.9579 16.8296C28.2583 16.7587 28.5674 16.6886 28.8855 16.619C29.2036 16.5495 29.5307 16.4806 29.8671 16.4119C30.2035 16.3432 30.5492 16.2748 30.9046 16.2062C31.26 16.1377 31.6251 16.069 32 16C31.625 15.931 31.2599 15.8623 30.9046 15.7938C30.5492 15.7252 30.2035 15.6567 29.8671 15.5881C29.5307 15.5194 29.2036 15.4504 28.8855 15.381C28.5674 15.3114 28.2583 15.2414 27.9579 15.1704C27.6574 15.0994 27.3657 15.0276 27.0823 14.9545C26.7988 14.8814 26.5238 14.8072 26.2567 14.7314C25.9897 14.6556 25.7307 14.5782 25.4794 14.4991C25.228 14.4199 24.9845 14.3387 24.7483 14.2555C24.512 14.1722 24.2832 14.0868 24.0614 13.9988C23.8396 13.9109 23.6247 13.8204 23.4167 13.7271C23.2087 13.6338 23.0074 13.5377 22.8125 13.4385C22.6176 13.3392 22.429 13.2367 22.2466 13.1307C22.0642 13.0248 21.8879 12.9154 21.7173 12.8022C21.5467 12.6889 21.3819 12.5719 21.2224 12.4507C21.063 12.3295 20.9091 12.2043 20.7602 12.0746C20.6113 11.9448 20.4675 11.8106 20.3285 11.6716C20.1895 11.5326 20.0553 11.3888 19.9255 11.2399C19.7957 11.091 19.6705 10.9371 19.5493 10.7776C19.4281 10.6182 19.3112 10.4534 19.1979 10.2828C19.0847 10.1122 18.9752 9.93582 18.8693 9.75339C18.7634 9.57096 18.661 9.38243 18.5616 9.18752C18.4624 8.99262 18.3662 8.79134 18.273 8.58325C18.1796 8.37517 18.0892 8.16045 18.0013 7.93864C17.9133 7.71684 17.8278 7.48796 17.7446 7.25174C17.6613 7.01552 17.5803 6.77187 17.501 6.5206C17.4218 6.26925 17.3444 6.0103 17.2687 5.74329C17.1929 5.47628 17.1186 5.20121 17.0456 4.91775C16.9725 4.63437 16.9007 4.34259 16.8297 4.04214C16.7587 3.74168 16.6887 3.43265 16.6191 3.1145C16.5496 2.79644 16.4807 2.46927 16.412 2.1329C16.3434 1.79652 16.2749 1.45077 16.2063 1.09538C16.1378 0.739986 16.0691 0.374947 16.0001 0Z" fill="white"/>
</svg>
